<svg xmlns="http://www.w3.org/2000/svg" width="256" height="256"><path fill-opacity=".016" d="M0 128.004v128.004l128.25-.254 128.25-.254.254-127.75L257.008 0H0v128.004m.485.496c0 70.4.119 99.053.265 63.672.146-35.38.146-92.98 0-128C.604 29.153.485 58.1.485 128.5" fill="#1976D2" fill-rule="evenodd"/><path fill-opacity=".091" d="M200.77 3.029c-5.709 3.782-6.354 4.556-11.27 13.527-9.789 17.863-15.487 26.543-26.752 40.751-6.626 8.356-14.117 18.219-16.647 21.917l-4.601 6.725-4.5-.549c-7.179-.876-6.942-.558-6.4-8.598.969-14.377 1.303-15.801 3.711-15.809 2.691-.008 6.865-2.676 9.575-6.12 5.364-6.82.692-22.627-8.572-29.001-5.61-3.86-11.553-4.654-21.873-2.924-3.817.64-12.116 1.786-18.441 2.548-16.012 1.928-26.254 3.853-44.731 8.407-14.04 3.461-16.336 4.317-19.173 7.155-2.405 2.405-3.364 4.405-3.775 7.88-.508 4.29-.247 5.035 3.314 9.451 5.191 6.437 9.401 10.84 12.077 12.631 1.811 1.212 2.413 3.035 3.321 10.056.61 4.717.964 10.277.788 12.356l-.321 3.78-11 3.223c-6.05 1.773-14.6 4.241-19 5.484-10.433 2.947-10.533 3.009-13.283 8.168-1.752 3.287-2.083 4.796-1.299 5.913.579.825 1.684 2.898 2.456 4.606 1.44 3.186 9.261 9.675 18.126 15.037 4.512 2.73 5.62 2.98 11.358 2.563l6.357-.462-.697 3.378c-1.456 7.053-7.536 23.9-13.491 37.378-3.402 7.7-7.476 17.437-9.055 21.639-3.281 8.733-11.964 26.637-14.956 30.839C-.098 237.947-.579 240 .84 240c.462 0 3.275-1.342 6.25-2.982 2.976-1.64 6.085-2.988 6.91-2.996.825-.008 6.062-2.28 11.638-5.048 16.704-8.294 29.48-21.884 40.208-42.77 5.34-10.396 12.522-30.756 13.567-38.462.343-2.525 1.29-6.482 2.105-8.793.815-2.31 1.482-5.508 1.482-7.106 0-3.172.748-3.681 6-4.078l3.5-.265.657 13c.362 7.15.926 19.975 1.254 28.5.328 8.525 1.093 27.704 1.7 42.62.608 14.916.833 28.416.5 30-.829 3.948 3.041 10.751 6.388 11.229 1.344.191 3.345.979 4.445 1.75 2.624 1.838 10.65 1.797 13.115-.067 1.067-.808 2.673-1.483 3.569-1.5.895-.018 2.187-.707 2.872-1.532.685-.825 2.057-1.5 3.05-1.5.993 0 2.776-1.234 3.962-2.743 1.843-2.342 2.061-3.518 1.494-8.053-.717-5.744.352-8.204 3.567-8.204 1.005 0 2.242.74 2.747 1.644.767 1.369 2.128 1.557 8.149 1.126 6.334-.453 8.779-1.29 19.765-6.768 6.895-3.438 14.163-7.718 16.151-9.511 4.535-4.089 12.843-8.777 14.137-7.977 1.505.93 12.253-7.823 18.696-15.224 3.18-3.653 8.048-8.926 10.818-11.716 2.77-2.791 6.888-7.583 9.152-10.649 2.264-3.066 6.398-7.485 9.187-9.82 5.679-4.755 7.11-8.211 7.119-17.191l.006-5.586-6.878-6.414c-10.882-10.149-14.225-12.211-16.349-10.087-.645.645-2.595 1.173-4.332 1.173-2.273 0-4.462 1.146-7.8 4.085-2.553 2.247-4.641 4.481-4.641 4.965 0 2.075-10.676 17.042-19.937 27.95-3.035 3.575-15.895 17.075-28.577 30-12.682 12.925-25.179 25.911-27.772 28.858L134 225.216l-.114-19.358c-.063-10.647-.266-20.666-.452-22.264-.186-1.598-.005-4.51.403-6.471.695-3.347 1.169-3.713 7.701-5.954 3.829-1.314 8.086-3.175 9.462-4.137 1.375-.962 5.13-2.722 8.345-3.912 5.221-1.932 10.674-5.274 14.476-8.87.727-.688 1.738-1.25 2.248-1.25.509 0 2.614-1.481 4.678-3.291 2.064-1.81 4.71-3.948 5.88-4.75 14.519-9.958 24.717-18.81 32.769-28.44 5.547-6.636 10.252-11.276 12.5-12.33 4.019-1.884 7.452-7.642 7.321-12.278-.127-4.463-3.65-10.989-8.885-16.462-4.034-4.217-5.76-5.257-10.452-6.293-5.184-1.145-5.9-1.077-9.211.877-1.974 1.165-5.167 4.314-7.096 6.998-1.928 2.684-6.566 8.387-10.306 12.674-3.74 4.287-8.087 9.37-9.661 11.295-1.573 1.925-7.641 8.469-13.483 14.541-9.069 9.427-22.343 24.082-33.897 37.425l-3.002 3.467-.691-11.467c-.38-6.306-.543-14.37-.362-17.919l.329-6.453 6.453-1.586c6.016-1.479 6.637-1.9 9.178-6.224 1.498-2.551 3.039-6.732 3.423-9.292.606-4.045 1.3-5.092 5.297-7.993 2.53-1.836 4.948-3.123 5.372-2.861.675.417 3.563-.824 8.777-3.77.825-.466 3.111-1.722 5.08-2.791 4.07-2.21 19.438-15.831 28.494-25.256 10.343-10.763 24.962-28.114 27.421-32.544 2.188-3.943 2.251-4.5.963-8.406-1.98-5.999-10.276-13.219-18.128-15.778-2.019-.657-4.211-1.847-4.872-2.644-1.803-2.173-4.126-1.773-9.188 1.58M85.395 65.765c-.652.434-1.331 5.768-1.658 13.023-.499 11.113-.393 12.245 1.106 11.843.911-.245 2.894-.721 4.407-1.057l2.75-.612V65l-2.75.015c-1.513.009-3.247.346-3.855.75m58.078 166.191c.325.526 1.252.703 2.059.393 2.067-.793 1.824-1.349-.591-1.349-1.132 0-1.793.43-1.468.956" fill="#1976D2" fill-rule="evenodd"/><path fill-opacity=".294" d="M204.377 1.469c-5.526 3.036-10.707 8.236-13.325 13.375-1.585 3.111-5.801 10.541-9.369 16.512-5.88 9.839-9.519 14.869-23.683 32.73-2.475 3.121-7.344 9.589-10.821 14.374-4.443 6.115-6.771 8.527-7.837 8.118-.834-.32-3.287-.865-5.452-1.212-2.164-.346-4.123-.935-4.355-1.309-.506-.819 1.21-19.677 2.024-22.244.335-1.053 1.533-1.813 2.858-1.813 3.586 0 10.294-5.409 11.066-8.922.843-3.838-1.123-12.796-3.901-17.771-4.24-7.594-15.248-12.491-23.394-10.407-2.029.519-8.638 1.474-14.688 2.123-17.283 1.855-47.167 7.5-62.5 11.806-8.794 2.47-12.508 6.046-12.875 12.4-.235 4.068.191 5.313 3.051 8.914 4.423 5.568 8.815 10.065 11.599 11.877 2.672 1.739 4.21 9.27 4.219 20.663.005 5.979-.287 7.269-1.744 7.701-.962.285-6.025 1.694-11.25 3.131-5.225 1.438-13.844 3.981-19.154 5.653-9.523 2.998-9.675 3.095-11.25 7.219C1.793 119.109 1.591 121 2.892 121c.49 0 1.165 1.09 1.499 2.422.903 3.599 20.744 19.103 24.095 18.828.558-.045 3.601-.3 6.764-.565 4.041-.34 5.75-.13 5.75.703 0 2.64-10.153 30.855-14.974 41.612-2.835 6.325-7.195 16.675-9.691 23-4.823 12.227-11.692 25.896-14.585 29.024-3.175 3.434-1.939 5.362 1.463 2.283 1.03-.931 4.665-2.632 8.079-3.78 3.415-1.147 10.483-4.258 15.708-6.912 24.055-12.221 43.983-42.877 51.486-79.202.88-4.258 1.868-8.177 2.197-8.709.329-.532 1.097-3.485 1.707-6.562l1.11-5.594 4.437-.754c2.44-.414 4.531-.65 4.646-.524.433.476 2.37 40.027 2.925 59.73.318 11.275 1.012 27.25 1.543 35.5.531 8.25.684 16.923.34 19.274-.832 5.686 2.825 11.634 7.792 12.674 11.057 2.317 12.631 2.039 26.55-4.689 2.85-1.377 3.618-3.869 3.369-10.926-.221-6.237.113-6.571 6.898-6.877 5.989-.271 6.75-.1 5 1.124-1.096.767.16.949 4.666.677 6.013-.363 15.22-4.031 22.488-8.958 1.46-.989 3.268-1.799 4.018-1.799s4.056-2.239 7.346-4.975c3.29-2.736 6.484-4.986 7.097-5 .613-.014 2.297-.954 3.74-2.09 1.444-1.136 3.071-1.79 3.615-1.453 1.476.912 10.741-6.353 17.344-13.6 3.198-3.51 8.17-8.857 11.05-11.882 2.879-3.025 7.125-8.016 9.435-11.092 2.31-3.076 6.901-8.065 10.201-11.088 5.076-4.65 6.002-6.022 6.011-8.908.006-1.877.287-5.081.624-7.12.581-3.512.275-4.056-5.746-10.25-3.498-3.598-6.85-6.542-7.45-6.542-.6 0-2.147-1.125-3.439-2.5-2.462-2.621-5.414-3.257-6.554-1.413-.369.598-1.629.837-2.799.531-3.356-.878-9.228 3.933-14.411 11.804-11.178 16.975-21.07 28.442-48.812 56.578-11.659 11.825-23.162 23.829-25.561 26.676-2.4 2.847-4.66 5.21-5.023 5.25-1.182.132-1.969-16.033-1.651-33.9l.311-17.475 6.767-2.601c3.721-1.43 8.446-3.523 10.5-4.652 2.053-1.128 6.09-2.816 8.971-3.751 2.881-.935 5.497-2.118 5.813-2.63.316-.511 3.584-2.903 7.262-5.314 3.678-2.411 7.778-5.559 9.111-6.994 1.334-1.435 2.858-2.609 3.388-2.609.531 0 2.899-1.688 5.263-3.75 2.365-2.062 7.501-6 11.415-8.75 4.605-3.235 10.328-8.797 16.217-15.76 5.297-6.262 10.795-11.697 13.152-13 3.155-1.744 4.42-3.273 5.719-6.91 1.563-4.373 1.56-4.991-.036-9.705-.953-2.817-3.616-7.147-6.044-9.83-2.386-2.637-4.444-4.939-4.571-5.115-.128-.175-2.745-.975-5.816-1.777-5.193-1.356-5.846-1.324-9.352.465-2.074 1.058-5.267 4.008-7.096 6.555-5.288 7.364-22.5 27.023-35.089 40.08-11.635 12.067-24.27 26.094-31.427 34.889-2.119 2.605-3.993 4.594-4.165 4.422-1.146-1.153-2.391-21.653-1.747-28.766l.765-8.451 6.438-1.584c6.023-1.482 6.593-1.872 8.838-6.048 1.32-2.456 2.699-6.46 3.065-8.899.593-3.954 1.254-4.843 6.092-8.198 2.985-2.07 5.749-3.565 6.141-3.322 1.68 1.038 14.175-6.214 22.475-13.046 6.182-5.089 20.019-19.077 27.201-27.5 3.049-3.575 6.567-7.625 7.819-9 6.694-7.352 9.816-11.331 11.557-14.728 1.863-3.635 1.87-3.917.181-7.772-1.993-4.548-8.376-10.935-12.759-12.766-1.624-.679-5.279-2.373-8.123-3.765-3.973-1.945-5.606-2.293-7.048-1.5M83.858 65.75c-.078.412-.22 3.225-.316 6.25a566.588 566.588 0 0 1-.548 12l-.374 6.5 3.144.31c6.453.636 6.99-.402 7.128-13.783L93.017 65h-4.509c-2.479 0-4.572.338-4.65.75" fill="#1976D2" fill-rule="evenodd"/><path fill-opacity=".118" d="M198.883 5.363c-3.067 2.342-5.436 5.453-7.803 10.25-1.87 3.788-3.963 7.562-4.65 8.387-.688.825-2.705 4.2-4.484 7.5-3.719 6.898-9.926 15.577-21.811 30.498-4.6 5.776-10.645 13.765-13.433 17.752-2.788 3.987-5.627 7.25-6.308 7.25-1.502 0-10.914 10.814-10.11 11.617.312.312 3.124-.175 6.249-1.084 5.613-1.631 6.952-1.478 6.983.8.032 2.416 6.818.425 13.015-3.817 3.477-2.381 6.581-4.071 6.897-3.754.531.53 3.962-.768 7.572-2.865.825-.479 2.8-1.596 4.388-2.482 7.842-4.37 27.481-23.191 43.294-41.49C230.371 30.399 233 26.644 233 23.475c0-6.577-8.861-15.15-20.057-19.405-7.318-2.782-8.916-2.635-14.06 1.293M29.799 45.624c-1.23 2.268-.77 9.155.692 10.369 1.329 1.103 1.465 1.016.938-.602-.49-1.499-.405-1.59.411-.439.565.799.784 1.847.486 2.33-.299.483.814 2.204 2.473 3.826 2.133 2.086 3.192 2.574 3.619 1.67.332-.703.416-.266.187.971-.298 1.606.386 2.82 2.393 4.25C44.052 70.173 45.477 70.58 44.5 69c-.34-.55-.115-1 .5-1s.816-.489.446-1.087c-.465-.753-.992-.767-1.712-.047-.717.717-1.64.719-2.97.008-1.864-.998-1.867-1.08-.097-2.422 1.008-.763 1.383-1.41.833-1.436-.55-.025-.325-.532.5-1.126 1.257-.904 1.211-.985-.288-.501-1.097.354-2.016-.018-2.379-.963-.325-.848-1.215-1.302-1.977-1.009-1.008.387-1.266-.127-.948-1.884.246-1.355-.186-2.934-.985-3.597-1.113-.924-1.426-.882-1.438.192-.013 1.107-.193 1.091-.934-.08-.506-.799-.726-1.765-.49-2.147.236-.382-.182-2.148-.929-3.924-.747-1.776-1.572-2.835-1.833-2.353m18.282 28.779c-.894 1.077-.865 1.523.127 1.921.989.396.999.537.042.597-1.341.085-1.745 3.657-.5 4.421.413.254.607 4.226.433 8.829l-.317 8.368-11.953 2.858c-6.574 1.572-12.153 3.182-12.398 3.579-.245.397-4.342 1.768-9.105 3.048-8.141 2.188-8.747 2.538-10.132 5.853-3.074 7.358 1.093 13.524 15.368 22.741l8.146 5.26 6.346-.897c3.49-.494 6.661-.579 7.047-.189.721.729-2.552 14.157-4.204 17.244-.51.953-2.465 5.947-4.345 11.098-1.879 5.151-5.249 13.416-7.489 18.366-2.239 4.95-6.589 15.075-9.666 22.5-5.239 12.643-12.612 26.569-14.95 28.235-2.38 1.696.66.558 5.969-2.235 3.137-1.65 6.481-3 7.431-3 .951 0 6.541-2.513 12.423-5.585 18.754-9.794 32.857-26.49 42.259-50.027 1.953-4.889 4.179-10.286 4.948-11.995.768-1.709 2.107-6.434 2.976-10.5.868-4.066 2.058-9.418 2.643-11.893 2.73-11.537 2.737-11.992.199-14.53-1.308-1.308-2.379-2.905-2.379-3.547 0-.809-.512-.746-1.664.205-1.508 1.244-1.552 1.162-.465-.878 1.579-2.963 1.843-2.871 3.565 1.25.804 1.925 2.047 3.493 2.763 3.485.935-.011.879-.288-.199-.985-.825-.533-1.107-.976-.628-.985.48-.008.372-.619-.241-1.357-.612-.738-.82-1.635-.462-1.994.358-.358-.312-1.487-1.49-2.509-1.179-1.022-1.813-2.206-1.411-2.631.403-.425-.243-.473-1.434-.108-1.191.366-2.443.217-2.782-.332-.339-.548-1.389-.749-2.334-.446-1.176.377-1.331.27-.491-.339 1.995-1.445 1.284-8.483-.915-9.058-1.464-.383-1.61-.78-.692-1.886.94-1.132.826-1.271-.595-.726-1.537.589-1.611.4-.591-1.505.641-1.199 1.663-1.873 2.271-1.497.65.402.822.226.417-.429-.849-1.374-3.277-.539-4.013 1.379-.915 2.384-2.321 1.589-2.346-1.327-.044-5.148-.686-7.25-2.226-7.281C59.391 94.935 55.252 90 56.87 90c.53 0 1.19.563 1.468 1.25.379.94.524.917.583-.094.043-.739-.816-1.577-1.91-1.863-1.094-.286-1.706-.978-1.361-1.536.351-.568.015-.793-.761-.512-.764.278-1.276 1.011-1.139 1.63.138.619-.2 1.125-.75 1.125-1.385 0-1.257-3.343.183-4.783.651-.651.872-1.496.49-1.877-.382-.382-1.389.173-2.238 1.233-1.481 1.847-1.5 1.834-.467-.3.817-1.688.71-3.107-.438-5.856-.834-1.996-1.268-4.032-.964-4.523.87-1.409-.198-1.042-1.485.509M48.5 79c-.34.55-.141 1 .441 1S50 79.55 50 79s-.198-1-.441-1-.719.45-1.059 1m10.156 18.545c.304.794.956 1.195 1.449.89 1.24-.766 1.126-1.132-.554-1.777-.967-.371-1.265-.076-.895.887M61 101c-.901.582-1.025.975-.309.985.655.008 1.469-.435 1.809-.985.767-1.242.421-1.242-1.5 0m12 15.059c0 .582.45.781 1 .441s1-.816 1-1.059-.45-.441-1-.441-1 .477-1 1.059m-1.733 4.831c.084 1.124.678 1.685 1.463 1.383 1.007-.386 1.048-.835.173-1.89-1.523-1.835-1.806-1.747-1.636.507M78 131c.825.533 1.95.969 2.5.969s.325-.436-.5-.969c-.825-.533-1.95-.969-2.5-.969s-.325.436.5.969m17 11.559c0 .857.457 1.276 1.016.931.559-.346.758-1.047.441-1.559-.857-1.387-1.457-1.129-1.457.628m0 6.382c0 1.068.385 2.179.856 2.47.47.291.643-.583.383-1.941-.564-2.951-1.239-3.239-1.239-.529m2.882 3.642c-.066.505-.066 1.255 0 1.667.065.412-.401.75-1.035.75-.86 0-.969 7.171-.429 28.25.398 15.537.929 30.275 1.181 32.75.251 2.475.584 10.35.74 17.5.366 16.847 1.154 18.531 9.55 20.394 3.339.741 7.093 1.104 8.341.808 4.634-1.1 10.211-3.526 10.568-4.597.203-.608 1.131-1.105 2.063-1.105.932 0 2.753-.742 4.047-1.648 2.168-1.519 2.308-2.139 1.773-7.866-.497-5.321-.293-6.525 1.415-8.359 1.467-1.574 2.713-1.986 4.7-1.554 1.894.412 2.294.3 1.334-.375-1.119-.788-1.027-1.163.5-2.051 1.658-.963 1.541-1.09-1.035-1.117-2.902-.03-2.903-.032-1.027-2.28 1.034-1.238 1.238-1.687.455-1-.782.688-1.81 1.25-2.282 1.25s-.568-.562-.213-1.25c.355-.687-.299-.125-1.453 1.25-2.06 2.453-2.122 2.462-3.285.5-1.393-2.35-1.797-4.577-1.794-9.899.001-2.145-.498-4.501-1.109-5.237-.611-.736-.855-2.005-.543-2.819.313-.815.158-1.735-.344-2.045-.502-.31-.665-1.337-.362-2.282.44-1.372.349-1.434-.453-.306-.801 1.127-1.072.941-1.344-.922-.188-1.283-1.016-2.515-1.841-2.738-1.311-.353-1.314-.275-.029.617.809.562 1.211 1.282.893 1.6-.81.81-3.955-.513-3.39-1.426.254-.412-.2-1.602-1.008-2.646-1.432-1.847-1.455-1.844-.874.103.486 1.628.396 1.721-.479.5-.811-1.131-.665-1.807.597-2.75 1.338-1 1.384-1.274.231-1.368-.792-.066-1.779-.066-2.191 0-1.129.178-.901-1.671.299-2.412.717-.444.725-1.038.023-1.883-.564-.679-.838-2.205-.61-3.391.251-1.301-.056-2.064-.773-1.926-.654.127-1.077-.332-.939-1.02.137-.687-.163-1.25-.667-1.25s-1.182.563-1.506 1.25c-.324.688-.375.101-.114-1.302.378-2.028-.134-2.913-2.494-4.307-1.633-.965-2.969-2.234-2.969-2.82 0-.638.703-.515 1.75.307 1.573 1.233 1.616 1.201.427-.319-.728-.929-1.97-1.442-2.761-1.138-1.005.385-1.253.067-.823-1.054.339-.883 1.132-1.297 1.762-.919.63.377.527-.075-.227-1.006-1.496-1.843-3.66-2.361-2.582-.618.365.59-.284.482-1.441-.241-2.424-1.513-2.54-2.148-.941-5.149 1.018-1.911.972-2.026-.368-.922-1.238 1.021-1.745 1.004-2.655-.092-.618-.745-.838-1.639-.49-1.988.349-.348.103-1.274-.546-2.056s-1.374-2.429-1.611-3.659c-.47-2.439-1.423-3.848-1.612-2.384M97 158.25c0 .779.688 1.417 1.528 1.417 1.729 0 1.473-1.833-.34-2.438-.654-.218-1.188.242-1.188 1.021m6 2.809c0 .582.45.781 1 .441s1-.816 1-1.059-.45-.441-1-.441-1 .477-1 1.059m-1.457 4.872c-.317.512-.118 1.213.441 1.559.559.345 1.016-.074 1.016-.931 0-1.757-.6-2.015-1.457-.628m1.457 3.952c0 .486.926 1.126 2.057 1.422 1.688.441 1.846.283.878-.884-1.321-1.591-2.935-1.886-2.935-.538m5.392 7.528c-.845.915-.293 1.224 2.32 1.298 1.885.053 3.133-.197 2.774-.556-.359-.359-.953-.66-1.319-.668-.367-.009-1.117-.299-1.667-.645-.55-.347-1.499-.09-2.108.571m5.118 7.605c.346.559 1.047.758 1.559.441.97-.599 1.195.341 1.089 4.543l-.063 2.5.853-2.5c1.582-4.637 1.239-6-1.507-6-1.479 0-2.294.429-1.931 1.016m8.054 3.277c.376.986.935 1.541 1.243 1.233.308-.307.001-1.114-.683-1.793-.988-.98-1.102-.865-.56.56m2.249 16.39c.721.289 1.584.253 1.916-.079.332-.332-.258-.568-1.312-.525-1.165.048-1.402.285-.604.604M128 205c0 .55.477 1 1.059 1s.781-.45.441-1-.816-1-1.059-1-.441.45-.441 1m15.079 16.583c.048 1.165.285 1.402.604.605.289-.722.253-1.585-.079-1.917-.332-.332-.568.258-.525 1.312m2.485 5.71c.376.986.935 1.541 1.243 1.233.308-.307.001-1.114-.683-1.793-.988-.98-1.102-.865-.56.56" fill="#1976D2" fill-rule="evenodd"/></svg>