<svg width="512" height="512" version="1.1" viewBox="0 0 128 128" xml:space="preserve" xmlns="http://www.w3.org/2000/svg"><rect x="4.2426" y="21.213" width="120.56" height="86.621" ry="43.31" fill="#e0f0e9" stroke-width=".25"/><path d="m52.659 45.577c-2.6958 3.7387-2.797 10.052-7.0364 11.729-4.3231 1.7103-10.205-0.60229-13.416-3.814-4.7496 3.1863-8.7792 7.6454-14.983 8.3095-7.4265 0.79495-9.0047 10.476-3.035 14.4 5.4207 3.5631 14.874-4.2018 14.5-1.4898-1.0532 7.634-4.7519 15.66-1.7661 23.288 4.4223-1.2479 7.0248-9.278 7.5585-12.848 0.83289-5.5712 0.61334-15.146 9.5357-16.683 7.4608-1.2851 6.2128 5.9929 5.8225 10.402-0.1035 8.5814-1.2661 21.44 1.7669 25.836 2.7944 4.0501 4.4636-6.937 4.7333-9.8952 0.57145-6.2681-0.36306-15.811 0.23278-24.539 3.6343-5.2683 16.476 2.02 14.732-7.4492-3.4022-6.2969-12.726-2.3034-14.357-10.889-1.3448-7.0792 4.1051-7.5181 9.2728-7.8961 8.4459-0.61779-1.4672-10.12-6.0621-11.188-4.0732-0.94684-18.663-1.7478-22.322-1.8578-6.6719-0.20054-18.596-2.5027-26.093 2.8508-1.505 5.2228 1.1166 12.151 4.2776 16.343 6.1034 2.2192 11.005-3.5782 16.978-4.2545 6.587-0.7459 13.109-0.41616 19.66-0.35501zm25.184 31.811c8.3514-2.571 15.701-7.4821 23.431-11.417 3.3842-3.2329 14.2-3.5493 9.8583-10.215-5.321-4.443-12.417 1.3165-17.773 3.3971-5.952 3.4848-11.502 7.8696-15.948 13.137-0.82988 1.612-0.5261 3.6127 0.43187 5.0977zm27.834 1.9882c-4.8987 6.6955-12.422 10.846-20.209 12.453s-10.724 10.033-2.6621 11.883c9.2617 2.1255 17.577-4.6059 22.348-11.699 2.38-3.5384 8.4526-11.264 0.52374-12.637z" fill="#392f41"/><g transform="translate(-2.4749 .70711)"><path d="m112.83 29.095c-14.516 2.4883-30.268 6.6408-39.796 18.771-4.2758 6.4665 6.7258 6.6423 10.664 3.8766 6.267-4.4007 12.676-8.7078 19.655-11.837 4.5556-2.0427 12.891-1.2506 14.305-4.4399 1.0454-2.981-1.3784-7.0921-4.8276-6.371z" fill="#dc3023"/></g></svg>
